<svg width="19" height="19" viewBox="0 0 19 19" fill="none" xmlns="http://www.w3.org/2000/svg">
<path d="M9.49997 1.01064L10.4505 1.06401L11.389 1.22348L12.3038 1.48703L13.1834 1.85134L14.0166 2.31185L14.793 2.86274L15.5028 3.49711L16.1372 4.20696L16.6881 4.98337L17.1486 5.81659L17.5129 6.69612L17.7765 7.61092L17.9359 8.54947L17.9893 9.49997L17.9359 10.4505L17.7765 11.389L17.5129 12.3038L17.1486 13.1834L16.6881 14.0166L16.1372 14.793L15.5028 15.5028L14.793 16.1372L14.0166 16.6881L13.1834 17.1486L12.3038 17.5129L11.389 17.7765L10.4505 17.9359L9.49997 17.9893L8.54947 17.9359L7.61092 17.7765L6.69612 17.5129L5.81659 17.1486L4.98337 16.6881L4.20696 16.1372L3.49711 15.5028L2.86274 14.793L2.31185 14.0166L1.85134 13.1834L1.48703 12.3038L1.22348 11.389L1.06401 10.4505L1.01064 9.49997L1.06401 8.54947L1.22348 7.61092L1.48703 6.69612L1.85134 5.81659L2.31185 4.98337L2.86274 4.20696L3.49711 3.49711L4.20696 2.86274L4.98337 2.31185L5.81659 1.85134L6.69612 1.48703L7.61092 1.22348L8.54947 1.06401L9.49997 1.01064Z" fill="#C2CCDE" fill-opacity="0.25"/>
<path d="M9.49997 1.01064L9.55664 0.00158994C9.51889 -0.000529979 9.48106 -0.000529979 9.44331 0.00158994L9.49997 1.01064ZM10.4505 1.06401L10.6198 0.0676583C10.5825 0.0613253 10.5449 0.0570889 10.5071 0.054969L10.4505 1.06401ZM11.389 1.22348L11.6688 0.252344C11.6325 0.241877 11.5956 0.233458 11.5583 0.227125L11.389 1.22348ZM12.3038 1.48703L12.6906 0.553324C12.6556 0.538855 12.6199 0.526359 12.5836 0.515892L12.3038 1.48703ZM13.1834 1.85134L13.6722 0.966813C13.6391 0.948524 13.605 0.932107 13.5701 0.917639L13.1834 1.85134ZM14.0166 2.31185L14.6014 1.48761C14.5706 1.46573 14.5385 1.4456 14.5054 1.42731L14.0166 2.31185ZM14.793 2.86274L15.4664 2.10917C15.4382 2.08398 15.4087 2.06039 15.3778 2.03851L14.793 2.86274ZM15.5028 3.49711L16.2564 2.82367C16.2312 2.79548 16.2045 2.76873 16.1763 2.74353L15.5028 3.49711ZM16.1372 4.20696L16.9614 3.62213C16.9396 3.5913 16.916 3.56172 16.8908 3.53352L16.1372 4.20696ZM16.6881 4.98337L17.5726 4.49451C17.5543 4.46142 17.5342 4.42938 17.5123 4.39855L16.6881 4.98337ZM17.1486 5.81659L18.0823 5.42984C18.0678 5.39491 18.0514 5.36082 18.0331 5.32773L17.1486 5.81659ZM17.5129 6.69612L18.4841 6.41634C18.4736 6.38001 18.4611 6.3443 18.4466 6.30937L17.5129 6.69612ZM17.7765 7.61092L18.7728 7.44163C18.7665 7.40436 18.7581 7.36747 18.7476 7.33114L17.7765 7.61092ZM17.9359 8.54947L18.945 8.4928C18.9429 8.45506 18.9386 8.41746 18.9323 8.38018L17.9359 8.54947ZM17.9893 9.49997L18.9984 9.55664C19.0005 9.51889 19.0005 9.48106 18.9984 9.44331L17.9893 9.49997ZM17.9359 10.4505L18.9323 10.6198C18.9386 10.5825 18.9429 10.5449 18.945 10.5071L17.9359 10.4505ZM17.7765 11.389L18.7476 11.6688C18.7581 11.6325 18.7665 11.5956 18.7728 11.5583L17.7765 11.389ZM17.5129 12.3038L18.4466 12.6906C18.4611 12.6556 18.4736 12.6199 18.4841 12.5836L17.5129 12.3038ZM17.1486 13.1834L18.0331 13.6722C18.0514 13.6391 18.0678 13.605 18.0823 13.5701L17.1486 13.1834ZM16.6881 14.0166L17.5123 14.6014C17.5342 14.5706 17.5543 14.5385 17.5726 14.5054L16.6881 14.0166ZM16.1372 14.793L16.8908 15.4664C16.916 15.4382 16.9396 15.4087 16.9614 15.3778L16.1372 14.793ZM15.5028 15.5028L16.1763 16.2564C16.2045 16.2312 16.2312 16.2045 16.2564 16.1763L15.5028 15.5028ZM14.793 16.1372L15.3778 16.9614C15.4087 16.9396 15.4382 16.916 15.4664 16.8908L14.793 16.1372ZM14.0166 16.6881L14.5054 17.5726C14.5385 17.5543 14.5706 17.5342 14.6014 17.5123L14.0166 16.6881ZM13.1834 17.1486L13.5701 18.0823C13.605 18.0678 13.6391 18.0514 13.6722 18.0331L13.1834 17.1486ZM12.3038 17.5129L12.5836 18.4841C12.6199 18.4736 12.6556 18.4611 12.6906 18.4466L12.3038 17.5129ZM11.389 17.7765L11.5583 18.7728C11.5956 18.7665 11.6325 18.7581 11.6688 18.7476L11.389 17.7765ZM10.4505 17.9359L10.5071 18.945C10.5449 18.9429 10.5825 18.9386 10.6198 18.9323L10.4505 17.9359ZM9.49997 17.9893L9.44331 18.9984C9.48106 19.0005 9.51889 19.0005 9.55664 18.9984L9.49997 17.9893ZM8.54947 17.9359L8.38018 18.9323C8.41746 18.9386 8.45506 18.9429 8.4928 18.945L8.54947 17.9359ZM7.61092 17.7765L7.33114 18.7476C7.36747 18.7581 7.40436 18.7665 7.44163 18.7728L7.61092 17.7765ZM6.69612 17.5129L6.30937 18.4466C6.3443 18.4611 6.38001 18.4736 6.41634 18.4841L6.69612 17.5129ZM5.81659 17.1486L5.32773 18.0331C5.36082 18.0514 5.39491 18.0678 5.42984 18.0823L5.81659 17.1486ZM4.98337 16.6881L4.39855 17.5123C4.42938 17.5342 4.46142 17.5543 4.49451 17.5726L4.98337 16.6881ZM4.20696 16.1372L3.53352 16.8908C3.56172 16.916 3.5913 16.9396 3.62213 16.9614L4.20696 16.1372ZM3.49711 15.5028L2.74353 16.1763C2.76873 16.2045 2.79548 16.2312 2.82367 16.2564L3.49711 15.5028ZM2.86274 14.793L2.03851 15.3778C2.06039 15.4087 2.08398 15.4382 2.10917 15.4664L2.86274 14.793ZM2.31185 14.0166L1.42731 14.5054C1.4456 14.5385 1.46573 14.5706 1.48761 14.6014L2.31185 14.0166ZM1.85134 13.1834L0.917639 13.5701C0.932107 13.605 0.948524 13.6391 0.966813 13.6722L1.85134 13.1834ZM1.48703 12.3038L0.515892 12.5836C0.526359 12.6199 0.538855 12.6556 0.553324 12.6906L1.48703 12.3038ZM1.22348 11.389L0.227125 11.5583C0.233458 11.5956 0.241877 11.6325 0.252344 11.6688L1.22348 11.389ZM1.06401 10.4505L0.054969 10.5071C0.0570889 10.5449 0.0613253 10.5825 0.0676583 10.6198L1.06401 10.4505ZM1.01064 9.49997L0.00158994 9.44331C-0.000529979 9.48106 -0.000529979 9.51889 0.00158994 9.55664L1.01064 9.49997ZM1.06401 8.54947L0.0676584 8.38018C0.0613253 8.41746 0.0570889 8.45506 0.054969 8.4928L1.06401 8.54947ZM1.22348 7.61092L0.252344 7.33114C0.241877 7.36747 0.233458 7.40436 0.227125 7.44163L1.22348 7.61092ZM1.48703 6.69612L0.553324 6.30937C0.538855 6.3443 0.526359 6.38001 0.515892 6.41634L1.48703 6.69612ZM1.85134 5.81659L0.966813 5.32773C0.948524 5.36082 0.932107 5.39491 0.917639 5.42984L1.85134 5.81659ZM2.31185 4.98337L1.48761 4.39855C1.46573 4.42938 1.4456 4.46142 1.42731 4.49451L2.31185 4.98337ZM2.86274 4.20696L2.10917 3.53352C2.08398 3.56172 2.06039 3.5913 2.03851 3.62213L2.86274 4.20696ZM3.49711 3.49711L2.82367 2.74353C2.79548 2.76873 2.76873 2.79548 2.74353 2.82367L3.49711 3.49711ZM4.20696 2.86274L3.62213 2.03851C3.5913 2.06039 3.56172 2.08398 3.53352 2.10917L4.20696 2.86274ZM4.98337 2.31185L4.49451 1.42731C4.46142 1.4456 4.42938 1.46573 4.39855 1.48761L4.98337 2.31185ZM5.81659 1.85134L5.42984 0.917639C5.39491 0.932107 5.36082 0.948524 5.32773 0.966813L5.81659 1.85134ZM6.69612 1.48703L6.41634 0.515892C6.38001 0.526359 6.3443 0.538855 6.30937 0.553324L6.69612 1.48703ZM7.61092 1.22348L7.44163 0.227125C7.40436 0.233458 7.36747 0.241877 7.33114 0.252344L7.61092 1.22348ZM8.54947 1.06401L8.4928 0.054969C8.45506 0.0570889 8.41746 0.0613253 8.38018 0.0676584L8.54947 1.06401ZM9.44331 2.01968L10.3938 2.07306L10.5071 0.054969L9.55664 0.00158994L9.44331 2.01968ZM10.2812 2.06037L11.2197 2.21984L11.5583 0.227125L10.6198 0.0676583L10.2812 2.06037ZM11.1093 2.19462L12.024 2.45817L12.5836 0.515892L11.6688 0.252344L11.1093 2.19462ZM11.9171 2.42074L12.7966 2.78505L13.5701 0.917639L12.6906 0.553324L11.9171 2.42074ZM12.6945 2.73588L13.5277 3.19638L14.5054 1.42731L13.6722 0.966813L12.6945 2.73588ZM13.4317 3.13608L14.2082 3.68698L15.3778 2.03851L14.6014 1.48761L13.4317 3.13608ZM14.1196 3.61631L14.8294 4.25068L16.1763 2.74353L15.4664 2.10917L14.1196 3.61631ZM14.7493 4.17054L15.3836 4.88039L16.8908 3.53352L16.2564 2.82367L14.7493 4.17054ZM15.313 4.79178L15.8639 5.5682L17.5123 4.39855L16.9614 3.62213L15.313 4.79178ZM15.8036 5.47224L16.2641 6.30545L18.0331 5.32773L17.5726 4.49451L15.8036 5.47224ZM16.2149 6.20334L16.5792 7.08288L18.4466 6.30937L18.0823 5.42984L16.2149 6.20334ZM16.5418 6.9759L16.8053 7.8907L18.7476 7.33114L18.4841 6.41634L16.5418 6.9759ZM16.7801 7.78021L16.9396 8.71876L18.9323 8.38018L18.7728 7.44163L16.7801 7.78021ZM16.9269 8.60614L16.9803 9.55664L18.9984 9.44331L18.945 8.4928L16.9269 8.60614ZM16.9803 9.44331L16.9269 10.3938L18.945 10.5071L18.9984 9.55664L16.9803 9.44331ZM16.9396 10.2812L16.7801 11.2197L18.7728 11.5583L18.9323 10.6198L16.9396 10.2812ZM16.8053 11.1093L16.5418 12.024L18.4841 12.5836L18.7476 11.6688L16.8053 11.1093ZM16.5792 11.9171L16.2149 12.7966L18.0823 13.5701L18.4466 12.6906L16.5792 11.9171ZM16.2641 12.6945L15.8036 13.5277L17.5726 14.5054L18.0331 13.6722L16.2641 12.6945ZM15.8639 13.4317L15.313 14.2082L16.9614 15.3778L17.5123 14.6014L15.8639 13.4317ZM15.3836 14.1196L14.7493 14.8294L16.2564 16.1763L16.8908 15.4664L15.3836 14.1196ZM14.8294 14.7493L14.1196 15.3836L15.4664 16.8908L16.1763 16.2564L14.8294 14.7493ZM14.2082 15.313L13.4317 15.8639L14.6014 17.5123L15.3778 16.9614L14.2082 15.313ZM13.5277 15.8036L12.6945 16.2641L13.6722 18.0331L14.5054 17.5726L13.5277 15.8036ZM12.7966 16.2149L11.9171 16.5792L12.6906 18.4466L13.5701 18.0823L12.7966 16.2149ZM12.024 16.5418L11.1093 16.8053L11.6688 18.7476L12.5836 18.4841L12.024 16.5418ZM11.2197 16.7801L10.2812 16.9396L10.6198 18.9323L11.5583 18.7728L11.2197 16.7801ZM10.3938 16.9269L9.44331 16.9803L9.55664 18.9984L10.5071 18.945L10.3938 16.9269ZM9.55664 16.9803L8.60614 16.9269L8.4928 18.945L9.44331 18.9984L9.55664 16.9803ZM8.71876 16.9396L7.78021 16.7801L7.44163 18.7728L8.38018 18.9323L8.71876 16.9396ZM7.8907 16.8053L6.9759 16.5418L6.41634 18.4841L7.33114 18.7476L7.8907 16.8053ZM7.08288 16.5792L6.20334 16.2149L5.42984 18.0823L6.30937 18.4466L7.08288 16.5792ZM6.30545 16.2641L5.47224 15.8036L4.49451 17.5726L5.32773 18.0331L6.30545 16.2641ZM5.5682 15.8639L4.79178 15.313L3.62213 16.9614L4.39855 17.5123L5.5682 15.8639ZM4.88039 15.3836L4.17054 14.7493L2.82367 16.2564L3.53352 16.8908L4.88039 15.3836ZM4.25068 14.8294L3.61631 14.1196L2.10917 15.4664L2.74353 16.1763L4.25068 14.8294ZM3.68698 14.2082L3.13608 13.4317L1.48761 14.6014L2.03851 15.3778L3.68698 14.2082ZM3.19638 13.5277L2.73588 12.6945L0.966813 13.6722L1.42731 14.5054L3.19638 13.5277ZM2.78505 12.7966L2.42074 11.9171L0.553324 12.6906L0.917639 13.5701L2.78505 12.7966ZM2.45817 12.024L2.19462 11.1093L0.252344 11.6688L0.515892 12.5836L2.45817 12.024ZM2.21984 11.2197L2.06037 10.2812L0.0676583 10.6198L0.227125 11.5583L2.21984 11.2197ZM2.07306 10.3938L2.01968 9.44331L0.00158994 9.55664L0.054969 10.5071L2.07306 10.3938ZM2.01968 9.55664L2.07306 8.60614L0.054969 8.4928L0.00158994 9.44331L2.01968 9.55664ZM2.06037 8.71876L2.21984 7.78021L0.227125 7.44163L0.0676584 8.38018L2.06037 8.71876ZM2.19462 7.8907L2.45817 6.9759L0.515892 6.41634L0.252344 7.33114L2.19462 7.8907ZM2.42074 7.08288L2.78505 6.20334L0.917639 5.42984L0.553324 6.30937L2.42074 7.08288ZM2.73588 6.30545L3.19638 5.47224L1.42731 4.49451L0.966813 5.32773L2.73588 6.30545ZM3.13608 5.5682L3.68698 4.79178L2.03851 3.62213L1.48761 4.39855L3.13608 5.5682ZM3.61631 4.88039L4.25068 4.17054L2.74353 2.82367L2.10917 3.53352L3.61631 4.88039ZM4.17054 4.25068L4.88039 3.61631L3.53352 2.10917L2.82367 2.74353L4.17054 4.25068ZM4.79178 3.68698L5.5682 3.13608L4.39855 1.48761L3.62213 2.03851L4.79178 3.68698ZM5.47224 3.19638L6.30545 2.73588L5.32773 0.966813L4.49451 1.42731L5.47224 3.19638ZM6.20334 2.78505L7.08288 2.42074L6.30937 0.553324L5.42984 0.917639L6.20334 2.78505ZM6.9759 2.45817L7.8907 2.19462L7.33114 0.252344L6.41634 0.515892L6.9759 2.45817ZM7.78021 2.21984L8.71876 2.06037L8.38018 0.0676584L7.44163 0.227125L7.78021 2.21984ZM8.60614 2.07306L9.55664 2.01968L9.44331 0.00158994L8.4928 0.054969L8.60614 2.07306Z" fill="#43A048"/>
</svg>
