<svg width="19" height="11" viewBox="0 0 19 11" fill="none" xmlns="http://www.w3.org/2000/svg">
<path d="M0.558484 5.50023L0.110842 5.27748L-7.1923e-06 5.50024L0.110856 5.723L0.558484 5.50023ZM1.71024 3.76828L2.08882 4.09489L1.71024 3.76828ZM1.88237 3.56876L1.50378 3.24215L1.88237 3.56876ZM16.2146 3.56877L15.836 3.89538L15.836 3.89538L16.2146 3.56877ZM16.3867 3.76828L16.7653 3.44167L16.7653 3.44167L16.3867 3.76828ZM17.5382 5.49977L17.9859 5.72252L18.0967 5.49975L17.9858 5.27699L17.5382 5.49977ZM16.3864 7.23172L16.765 7.55833L16.765 7.55833L16.3864 7.23172ZM16.2143 7.43123L15.8357 7.10462L15.8357 7.10462L16.2143 7.43123ZM9.51386 10.5L9.51386 10L9.51386 10.5ZM8.58259 10.5L8.58259 11L8.58259 10.5ZM1.88214 7.43123L2.26072 7.10462L1.88214 7.43123ZM1.71001 7.23172L2.08859 6.90511L1.71001 7.23172ZM1.00612 5.72298C1.29443 5.1436 1.65647 4.59605 2.08882 4.09489L1.33166 3.44167C0.844256 4.00663 0.435978 4.62407 0.110842 5.27748L1.00612 5.72298ZM2.08882 4.09489L2.26095 3.89538L1.50378 3.24215L1.33166 3.44167L2.08882 4.09489ZM2.26095 3.89538C3.847 2.05694 6.15478 0.999998 8.58282 0.999998L8.58282 -1.73658e-06C5.86397 -1.97427e-06 3.2798 1.18353 1.50378 3.24215L2.26095 3.89538ZM8.58282 0.999998L9.5141 0.999998L9.5141 -1.65516e-06L8.58282 -1.73658e-06L8.58282 0.999998ZM9.5141 0.999998C11.9421 0.999999 14.2499 2.05695 15.836 3.89538L16.5931 3.24215C14.8171 1.18353 12.2329 -1.41748e-06 9.5141 -1.65516e-06L9.5141 0.999998ZM15.836 3.89538L16.0081 4.09489L16.7653 3.44167L16.5931 3.24215L15.836 3.89538ZM16.0081 4.09489C16.4403 4.59592 16.8023 5.14332 17.0906 5.72254L17.9858 5.27699C17.6607 4.62377 17.2525 4.00649 16.7653 3.44167L16.0081 4.09489ZM16.765 7.55833C17.2524 6.99337 17.6607 6.37592 17.9859 5.72252L17.0906 5.27702C16.8023 5.8564 16.4402 6.40395 16.0079 6.90511L16.765 7.55833ZM16.5929 7.75785L16.765 7.55833L16.0079 6.90511L15.8357 7.10462L16.5929 7.75785ZM9.51386 11C12.2327 11 14.8169 9.81646 16.5929 7.75785L15.8357 7.10462C14.2497 8.94305 11.9419 10 9.51386 10L9.51386 11ZM8.58259 11L9.51386 11L9.51386 10L8.58259 10L8.58259 11ZM1.50355 7.75784C3.27957 9.81646 5.86374 11 8.58259 11L8.58259 10C6.15455 10 3.84677 8.94305 2.26072 7.10462L1.50355 7.75784ZM1.33143 7.55833L1.50355 7.75784L2.26072 7.10462L2.08859 6.90511L1.33143 7.55833ZM0.110856 5.723C0.43595 6.37622 0.844147 6.99351 1.33143 7.55833L2.08859 6.90511C1.65635 6.40408 1.29438 5.85667 1.00611 5.27745L0.110856 5.723Z" fill="#B8B8B8"/>
</svg>
