<svg width="24" height="24" viewBox="0 0 24 24" fill="none" xmlns="http://www.w3.org/2000/svg">
<path d="M16.5384 6.39221L12.0481 9.89653L7.45508 6.39221V6.39316L7.46063 6.39789V11.3049L11.9963 14.885L16.5384 11.4432V6.39221Z" fill="#F44336"/>
<path d="M17.7176 5.53979L16.5383 6.39219V11.4431L20.249 8.59423V6.87806C20.249 6.87806 19.7986 4.42693 17.7176 5.53979Z" fill="#FDD835"/>
<path d="M16.5383 11.4433V17.9944H19.3824C19.3824 17.9944 20.1916 17.9111 20.2499 16.9886V8.59436L16.5383 11.4433Z" fill="#43A048"/>
<path d="M7.46084 17.9999V11.3048L7.45508 11.3L7.46084 17.9999Z" fill="#F44336"/>
<path d="M7.4551 6.39322L6.28234 5.54555C4.20135 4.43269 3.75 6.88287 3.75 6.88287V8.59904L7.4551 11.3002V6.39322Z" fill="#B71B1C"/>
<path d="M7.45508 6.39313V11.3001L7.46084 11.3049V6.39786L7.45508 6.39313Z" fill="#F44336"/>
<path d="M3.75 8.59991V16.9942C3.80734 17.9176 4.61754 18 4.61754 18H7.46158L7.4551 11.3001L3.75 8.59991Z" fill="#304FFE"/>
</svg>
