<svg width="50" height="50" viewBox="0 0 50 50" fill="none" xmlns="http://www.w3.org/2000/svg">
<circle cx="25" cy="25" r="24.5" fill="white" stroke="#1D1AD8"/>
<path fill-rule="evenodd" clip-rule="evenodd" d="M19.9053 15.9999C18.2467 15.9999 16.7468 16.4144 15.6582 17.4253C14.5592 18.4458 13.9999 19.9612 13.9999 21.9053V29.0945C13.9999 31.0387 14.5592 32.554 15.6582 33.5745C16.7468 34.5854 18.2467 34.9999 19.9053 34.9999H30.1756C31.8342 34.9999 33.3341 34.5854 34.4226 33.5745C35.5216 32.554 36.081 31.0387 36.081 29.0945V21.9053C36.081 19.9612 35.5216 18.4458 34.4226 17.4253C33.3341 16.4144 31.8342 15.9999 30.1756 15.9999H19.9053ZM32.4643 21.7639C32.8008 21.5038 32.8629 21.02 32.6027 20.6834C32.3427 20.3468 31.859 20.2848 31.5223 20.5449L25.8253 24.947C25.363 25.3043 24.7177 25.3043 24.2554 24.947L18.5584 20.5449C18.2218 20.2848 17.7381 20.3468 17.478 20.6834C17.2178 21.02 17.2799 21.5038 17.6165 21.7639L23.3135 26.166C24.3306 26.9519 25.7501 26.9519 26.7673 26.166L32.4643 21.7639Z" fill="#1D1AD8"/>
</svg>
