<svg width="50" height="50" viewBox="0 0 50 50" fill="none" xmlns="http://www.w3.org/2000/svg">
<circle cx="25" cy="25" r="24.5" fill="white" stroke="#1D1AD8"/>
<path d="M30.3696 16.0002H20.7898C18.1458 16.0002 15.9999 18.1365 15.9999 20.7709V26.4996V27.4576C15.9999 30.092 18.1458 32.2283 20.7898 32.2283H22.2267C22.4854 32.2283 22.8303 32.4008 22.9931 32.6115L24.4301 34.5179C25.0624 35.3609 26.097 35.3609 26.7292 34.5179L28.1662 32.6115C28.3482 32.372 28.6356 32.2283 28.9326 32.2283H30.3696C33.0136 32.2283 35.1595 30.092 35.1595 27.4576V20.7709C35.1595 18.1365 33.0136 16.0002 30.3696 16.0002ZM21.7478 25.58C21.2113 25.58 20.7898 25.1489 20.7898 24.622C20.7898 24.0951 21.2209 23.664 21.7478 23.664C22.2746 23.664 22.7057 24.0951 22.7057 24.622C22.7057 25.1489 22.2842 25.58 21.7478 25.58ZM25.5797 25.58C25.0432 25.58 24.6217 25.1489 24.6217 24.622C24.6217 24.0951 25.0528 23.664 25.5797 23.664C26.1066 23.664 26.5376 24.0951 26.5376 24.622C26.5376 25.1489 26.1161 25.58 25.5797 25.58ZM29.4116 25.58C28.8751 25.58 28.4536 25.1489 28.4536 24.622C28.4536 24.0951 28.8847 23.664 29.4116 23.664C29.9385 23.664 30.3696 24.0951 30.3696 24.622C30.3696 25.1489 29.9481 25.58 29.4116 25.58Z" fill="#1D1AD8"/>
</svg>
