<svg width="48" height="48" viewBox="0 0 48 48" fill="none" xmlns="http://www.w3.org/2000/svg">
<path fill-rule="evenodd" clip-rule="evenodd" d="M23.9976 9C21.3452 9 19.1851 11.1535 19.1851 13.81V24.949C19.1851 27.6059 21.3397 29.759 23.9976 29.759C26.6501 29.759 28.81 27.6055 28.81 24.949V13.81C28.81 11.1531 26.6554 9 23.9976 9ZM21.2476 13.8036V24.9554C21.2476 26.4574 22.4788 27.6957 23.9976 27.6957C25.5269 27.6957 26.7475 26.4688 26.7475 24.9554V13.8036C26.7475 12.3017 25.5163 11.0634 23.9976 11.0634C22.4681 11.0634 21.2476 12.2902 21.2476 13.8036Z" fill="#2C2C2C"/>
<path d="M25.125 35.4366V32.5604C30.375 32.2602 32.625 27.9539 32.625 23.7458V21.8057C32.6259 21.7905 32.6257 21.7753 32.6254 21.76L32.625 21.7368C32.625 21.167 32.1595 20.7051 31.5901 20.7051C31.0204 20.7051 30.57 21.167 30.57 21.7368V23.7448C30.57 27.9533 28.875 30.8346 24.0751 30.8346C19.875 30.8346 17.4375 27.9533 17.4375 23.7448V21.8057C17.4375 21.2358 16.9757 20.774 16.4063 20.774C15.8368 20.774 15.375 21.2358 15.375 21.8057V23.7458C15.375 27.9586 18.375 32.2602 23.025 32.5604V35.4366H19.1598C18.5977 35.4366 18.1251 35.8986 18.1251 36.4683C18.1251 37.0421 18.5883 37.5 19.1598 37.5H28.875C29.4371 37.5 29.9249 37.0381 29.9249 36.4683C29.9249 35.8945 29.4465 35.4366 28.875 35.4366H25.125Z" fill="#2C2C2C"/>
</svg>
