<svg width="48" height="48" viewBox="0 0 48 48" fill="none" xmlns="http://www.w3.org/2000/svg">
<path fill-rule="evenodd" clip-rule="evenodd" d="M24 39C15.7157 39 9 32.2843 9 24C9 15.7157 15.7157 9 24 9C32.2843 9 39 15.7157 39 24C39 32.2843 32.2843 39 24 39ZM24 37.5C31.4558 37.5 37.5 31.4558 37.5 24C37.5 16.5442 31.4558 10.5 24 10.5C16.5442 10.5 10.5 16.5442 10.5 24C10.5 31.4558 16.5442 37.5 24 37.5ZM23.9822 34.5C18.6363 34.5 13.5626 29.3727 13.5626 25.6672C13.5626 23.5406 18.1832 26.1 23.9822 26.1C29.7812 26.1 34.4529 23.5441 34.4374 25.6672C34.4112 29.258 29.3282 34.5 23.9822 34.5ZM23.9822 29.775C28.9528 29.775 32.3913 27.8535 32.3913 26.4677C32.3913 25.082 28.9528 27.294 23.9822 27.294C19.0117 27.294 15.6303 25.3475 15.6303 26.4677C15.6303 27.588 19.0117 29.775 23.9822 29.775ZM19.4813 21.3375C18.4975 21.3375 17.7 20.54 17.7 19.5562C17.7 18.5725 18.4975 17.775 19.4813 17.775C20.465 17.775 21.2625 18.5725 21.2625 19.5562C21.2625 20.54 20.465 21.3375 19.4813 21.3375ZM28.4813 21.3375C27.4975 21.3375 26.7 20.54 26.7 19.5562C26.7 18.5725 27.4975 17.775 28.4813 17.775C29.465 17.775 30.2625 18.5725 30.2625 19.5562C30.2625 20.54 29.465 21.3375 28.4813 21.3375Z" fill="#2C2C2C"/>
</svg>
