<svg width="100" height="100" viewBox="0 0 100 100" fill="none" xmlns="http://www.w3.org/2000/svg">
<path d="M89.3438 33.6875H82.3375C81.9508 33.6935 81.58 33.8427 81.2969 34.1062C79.0594 30.5344 76.7438 27.675 74.9469 25.8781C73.15 24.0844 68.7594 22.8063 63.2844 22.0406V15.7188C58.4719 15.1 53.6031 14.9375 49.95 14.9375C46.325 14.9375 41.5031 15.0937 36.7219 15.7062V22.025C31.1906 22.7875 26.7594 24.0688 24.9469 25.8781C23.1594 27.6719 20.8594 30.5125 18.6344 34.0594C18.3624 33.8309 18.0207 33.702 17.6656 33.6938H10.6562C9.79688 33.6938 9.09375 34.4 9.09375 35.2563V38.4125C9.09375 39.2688 9.78125 40.1 10.625 40.2656L14.875 41.0781C11.2063 49.2594 9.04375 59.4406 12.4438 69.6406V75.6938C12.4438 77.4219 12.8812 78.8188 13.4219 78.8188H21.4281C21.9687 78.8188 22.4063 77.4219 22.4063 75.6938V70.7438C29.5875 71.4313 39.75 72.1813 49.9438 72.1813C60.0438 72.1813 70.3187 71.4437 77.4875 70.7625V75.6938C77.4875 77.4219 77.925 78.8188 78.4625 78.8188H86.4688C87.0062 78.8188 87.4437 77.4219 87.4437 75.6938L87.4375 69.6375C90.8344 59.45 88.6781 49.275 85.0156 41.0937L89.3656 40.2656C89.7902 40.1691 90.1708 39.9345 90.4479 39.5987C90.7249 39.2628 90.8828 38.8446 90.8969 38.4094V35.2531C90.8969 34.8403 90.7336 34.4443 90.4426 34.1516C90.1516 33.8588 89.7565 33.6931 89.3438 33.6906V33.6875ZM22.2094 59.0844C20.7401 59.0356 19.3474 58.4176 18.3253 57.361C17.3033 56.3044 16.7319 54.8919 16.7319 53.4219C16.7319 51.9518 17.3033 50.5394 18.3253 49.4828C19.3474 48.4262 20.7401 47.8082 22.2094 47.7594C23.6786 47.8086 25.0712 48.427 26.0929 49.4838C27.1147 50.5407 27.6857 51.9533 27.6853 53.4234C27.6849 54.8934 27.1131 56.3058 26.0908 57.3621C25.0684 58.4184 23.6786 59.036 22.2094 59.0844ZM17.4469 42.8656C20.4469 36 24.625 30.625 27.1562 28.0875C28.9812 26.2594 37.5938 24.3156 49.9438 24.3156C62.2938 24.3156 70.9062 26.2625 72.7344 28.0906C75.2656 30.6219 79.4406 35.9969 82.4406 42.8656C75.7781 43.6031 62.8 41.8969 49.9469 41.8969C37.0938 41.8969 24.1156 43.6031 17.4469 42.8656ZM77.6781 59.0844C76.2089 59.0356 74.8162 58.4176 73.7941 57.361C72.772 56.3044 72.2006 54.8919 72.2006 53.4219C72.2006 51.9518 72.772 50.5394 73.7941 49.4828C74.8162 48.4262 76.2089 47.8082 77.6781 47.7594C79.1473 47.8086 80.5399 48.427 81.5617 49.4838C82.5835 50.5407 83.1544 51.9533 83.154 53.4234C83.1536 54.8934 82.5819 56.3058 81.5595 57.3621C80.5371 58.4184 79.1474 59.036 77.6781 59.0844Z" fill="white"/>
</svg>
