<svg width="15" height="12" viewBox="0 0 15 12" fill="none" xmlns="http://www.w3.org/2000/svg">
<path fill-rule="evenodd" clip-rule="evenodd" d="M4.29008 2.12692L4.44999 1.73854C4.75856 0.989116 5.4889 0.5 6.29937 0.5L8.91059 0.5C9.72106 0.5 10.4514 0.989117 10.76 1.73854L10.9199 2.12692H11.5C13.1569 2.12692 14.5 3.47006 14.5 5.12692L14.5 8.4235C14.5 10.0804 13.1569 11.4235 11.5 11.4235L3.5 11.4235C1.84315 11.4235 0.5 10.0804 0.5 8.4235L0.5 5.12692C0.5 3.47006 1.84315 2.12692 3.5 2.12692L4.29008 2.12692Z" fill="#C2CCDE" fill-opacity="0.25"/>
<path d="M4.29008 2.12692V2.62692H4.62494L4.75243 2.31728L4.29008 2.12692ZM4.44999 1.73854L4.91234 1.92891L4.44999 1.73854ZM10.76 1.73854L11.2223 1.54818V1.54818L10.76 1.73854ZM10.9199 2.12692L10.4575 2.31728L10.585 2.62692H10.9199V2.12692ZM4.75243 2.31728L4.91234 1.92891L3.98765 1.54818L3.82774 1.93655L4.75243 2.31728ZM4.91234 1.92891C5.14376 1.36684 5.69152 1 6.29937 1V0C5.28628 0 4.37336 0.611395 3.98765 1.54818L4.91234 1.92891ZM6.29937 1L8.91059 1V0L6.29937 0V1ZM8.91059 1C9.51844 1 10.0662 1.36684 10.2976 1.92891L11.2223 1.54818C10.8366 0.611396 9.92367 0 8.91059 0V1ZM10.2976 1.92891L10.4575 2.31728L11.3822 1.93655L11.2223 1.54818L10.2976 1.92891ZM10.9199 2.62692H11.5V1.62692H10.9199V2.62692ZM11.5 2.62692C12.8807 2.62692 14 3.7462 14 5.12692L15 5.12692C15 3.19392 13.433 1.62692 11.5 1.62692V2.62692ZM14 5.12692L14 8.4235L15 8.4235L15 5.12692L14 5.12692ZM14 8.4235C14 9.80421 12.8807 10.9235 11.5 10.9235V11.9235C13.433 11.9235 15 10.3565 15 8.4235L14 8.4235ZM11.5 10.9235L3.5 10.9235V11.9235L11.5 11.9235V10.9235ZM3.5 10.9235C2.11929 10.9235 1 9.80421 1 8.4235H0C0 10.3565 1.567 11.9235 3.5 11.9235V10.9235ZM1 8.4235L1 5.12692H0L0 8.4235H1ZM1 5.12692C1 3.74621 2.11929 2.62692 3.5 2.62692L3.5 1.62692C1.567 1.62692 0 3.19392 0 5.12692H1ZM3.5 2.62692H4.29008V1.62692L3.5 1.62692L3.5 2.62692Z" fill="white"/>
</svg>
