<svg width="77" height="60" viewBox="0 0 77 60" fill="none" xmlns="http://www.w3.org/2000/svg">
<path d="M75.5381 17.6108H68.9432C68.5792 17.6164 68.2301 17.7565 67.9637 18.0041C65.8576 14.6493 63.6779 11.9636 61.9865 10.2759C60.2951 8.59114 56.1623 7.39067 51.0088 6.67156V0.733783C46.4789 0.152627 41.896 0 38.4574 0C35.0452 0 30.5064 0.146756 26.0059 0.722042V6.65688C20.7994 7.37305 16.6284 8.57646 14.9223 10.2759C13.2398 11.9607 11.0748 14.6287 8.98044 17.9601C8.72444 17.7455 8.40281 17.6244 8.06857 17.6167H1.47076C0.661841 17.6167 0 18.28 0 19.0842V22.0487C0 22.8529 0.647133 23.6337 1.44134 23.7893L5.4418 24.5524C1.98846 32.2366 -0.0470642 41.7992 3.1533 51.3795V57.0649C3.1533 58.688 3.56511 60 4.074 60H11.6102C12.119 60 12.5308 58.688 12.5308 57.0649V52.4156C19.2904 53.0613 28.8563 53.7658 38.4515 53.7658C47.9584 53.7658 57.6301 53.0731 64.378 52.4332V57.0649C64.378 58.688 64.7898 60 65.2957 60H72.8319C73.3378 60 73.7496 58.688 73.7496 57.0649L73.7437 51.3766C76.9412 41.808 74.9115 32.2512 71.4641 24.5671L75.5587 23.7893C75.9583 23.6986 76.3165 23.4783 76.5773 23.1628C76.8381 22.8474 76.9868 22.4545 77 22.0458V19.0813C77 18.6936 76.8463 18.3216 76.5724 18.0467C76.2984 17.7717 75.9266 17.6161 75.5381 17.6137V17.6108ZM12.3455 41.4646C10.9626 41.4188 9.65161 40.8384 8.68956 39.846C7.7275 38.8536 7.18967 37.5269 7.18967 36.1462C7.18967 34.7654 7.7275 33.4388 8.68956 32.4464C9.65161 31.454 10.9626 30.8736 12.3455 30.8277C13.7285 30.8739 15.0393 31.4547 16.0011 32.4474C16.9629 33.4401 17.5003 34.7669 17.4999 36.1476C17.4995 37.5283 16.9614 38.8548 15.999 39.847C15.0367 40.8391 13.7285 41.4192 12.3455 41.4646ZM7.86267 26.2313C10.6865 19.7828 14.6193 14.7344 17.0019 12.351C18.7198 10.634 26.8266 8.80834 38.4515 8.80834C50.0763 8.80834 58.1831 10.6369 59.9039 12.354C62.2866 14.7314 66.2164 19.7799 69.0403 26.2313C62.769 26.924 50.5529 25.3214 38.4544 25.3214C26.356 25.3214 14.1399 26.924 7.86267 26.2313ZM64.5574 41.4646C63.1744 41.4188 61.8635 40.8384 60.9014 39.846C59.9394 38.8536 59.4015 37.5269 59.4015 36.1462C59.4015 34.7654 59.9394 33.4388 60.9014 32.4464C61.8635 31.454 63.1744 30.8736 64.5574 30.8277C65.9403 30.8739 67.2512 31.4547 68.2129 32.4474C69.1747 33.4401 69.7122 34.7669 69.7118 36.1476C69.7114 37.5283 69.1732 38.8548 68.2109 39.847C67.2486 40.8391 65.9404 41.4192 64.5574 41.4646Z" fill="url(#paint0_linear_45_2363)"/>
<defs>
<linearGradient id="paint0_linear_45_2363" x1="77" y1="30" x2="0" y2="30" gradientUnits="userSpaceOnUse">
<stop stop-color="#1D1AD8"/>
<stop offset="1" stop-color="#0F0E72"/>
</linearGradient>
</defs>
</svg>
